<svg width="20" height="20" viewBox="0 0 20 20" fill="none" xmlns="http://www.w3.org/2000/svg">
<g id="arrow_upward_alt">
<mask id="mask0_11_209" style="mask-type:alpha" maskUnits="userSpaceOnUse" x="0" y="0" width="20" height="20">
<rect id="Bounding box" width="20" height="20" fill="#D9D9D9"/>
</mask>
<g mask="url(#mask0_11_209)">
<path id="arrow_upward_alt_2" d="M9.24999 8.875L7.58332 10.5417C7.43055 10.6944 7.25346 10.7708 7.05207 10.7708C6.85068 10.7708 6.6736 10.6944 6.52082 10.5417C6.36805 10.3889 6.29166 10.2118 6.29166 10.0104C6.29166 9.80903 6.36805 9.63195 6.52082 9.47917L9.47916 6.52083C9.63193 6.36806 9.80555 6.29167 9.99999 6.29167C10.1944 6.29167 10.368 6.36806 10.5208 6.52083L13.4792 9.47917C13.6319 9.63195 13.7083 9.80556 13.7083 10C13.7083 10.1944 13.6319 10.3681 13.4792 10.5208C13.3264 10.6736 13.1493 10.75 12.9479 10.75C12.7465 10.75 12.5694 10.6736 12.4167 10.5208L10.75 8.875V14.25C10.75 14.4583 10.6771 14.6354 10.5312 14.7813C10.3854 14.9271 10.2083 15 9.99999 15C9.79166 15 9.61457 14.9271 9.46874 14.7813C9.32291 14.6354 9.24999 14.4583 9.24999 14.25V8.875Z" fill="#3BA752"/>
</g>
</g>
</svg>
