<svg width="20" height="20" viewBox="0 0 20 20" fill="none" xmlns="http://www.w3.org/2000/svg">
<g id="arrow_upward_alt">
<mask id="mask0_11_66" style="mask-type:alpha" maskUnits="userSpaceOnUse" x="0" y="0" width="20" height="20">
<rect id="Bounding box" x="20" y="20" width="20" height="20" transform="rotate(-180 20 20)" fill="#D9D9D9"/>
</mask>
<g mask="url(#mask0_11_66)">
<path id="arrow_upward_alt_2" d="M10.75 11.125L12.4167 9.45833C12.5694 9.30556 12.7465 9.22917 12.9479 9.22917C13.1493 9.22917 13.3264 9.30556 13.4792 9.45833C13.6319 9.61111 13.7083 9.7882 13.7083 9.98958C13.7083 10.191 13.6319 10.3681 13.4792 10.5208L10.5208 13.4792C10.3681 13.6319 10.1944 13.7083 9.99999 13.7083C9.80555 13.7083 9.63194 13.6319 9.47916 13.4792L6.52083 10.5208C6.36805 10.3681 6.29166 10.1944 6.29166 10C6.29166 9.80556 6.36805 9.63194 6.52083 9.47917C6.67361 9.32639 6.85069 9.25 7.05208 9.25C7.25347 9.25 7.43055 9.32639 7.58333 9.47917L9.24999 11.125V5.75C9.24999 5.54167 9.32291 5.36458 9.46874 5.21875C9.61458 5.07292 9.79166 5 9.99999 5C10.2083 5 10.3854 5.07292 10.5312 5.21875C10.6771 5.36458 10.75 5.54167 10.75 5.75V11.125Z" fill="#C41C1C"/>
</g>
</g>
</svg>
